<svg id="Layer_1" data-name="Layer 1" xmlns="http://www.w3.org/2000/svg" viewBox="0 0 186.02 194.21"><defs><style>.cls-1{fill:none;}.cls-2{fill:#57ccb9;}</style></defs><title>logo</title><path class="cls-1" d="M-1455,734" transform="translate(-502.21 -326.73)"/><path class="cls-2" d="M676,514.39l-35.73-34.66c0,.44,0,.9,0,1.38,0,5.6-.94,13.92-6,21.62-13.39,20.28-43.67,18.34-49,18-17.16-1.1-31.54-8.84-42.67-17.82A33,33,0,1,0,518,471a34,34,0,0,0,.4,5.18c-1.11-1.68-1.84-2.89-2.17-3.45-24-40.43-16.47-97.24,17-146a182.74,182.74,0,0,0,34,22c36.63,18.29,51.34,10,73,25,25.91,17.94,44.12,57,31,81-5.73,10.47-16.29,16-25,19.08l42,17.92Z" transform="translate(-502.21 -326.73)"/></svg>